<svg width="24" height="24" viewBox="0 0 24 24" fill="none" xmlns="http://www.w3.org/2000/svg">
<g id="SpotifyLogo">
<path id="Vector" d="M12 2.4375C10.1087 2.4375 8.25991 2.99833 6.68736 4.04907C5.11482 5.09981 3.88917 6.59327 3.16541 8.34059C2.44164 10.0879 2.25227 12.0106 2.62125 13.8656C2.99022 15.7205 3.90096 17.4244 5.2383 18.7617C6.57564 20.099 8.27951 21.0098 10.1345 21.3788C11.9894 21.7477 13.9121 21.5584 15.6594 20.8346C17.4067 20.1108 18.9002 18.8852 19.9509 17.3126C21.0017 15.7401 21.5625 13.8913 21.5625 12C21.5595 9.46478 20.5511 7.03425 18.7584 5.24158C16.9658 3.44891 14.5352 2.44048 12 2.4375ZM12 20.4375C10.3312 20.4375 8.69992 19.9426 7.31238 19.0155C5.92484 18.0884 4.84338 16.7706 4.20477 15.2289C3.56616 13.6871 3.39907 11.9906 3.72463 10.3539C4.05019 8.71721 4.85379 7.21379 6.03379 6.03379C7.2138 4.85378 8.71722 4.05019 10.3539 3.72462C11.9906 3.39906 13.6871 3.56615 15.2289 4.20477C16.7706 4.84338 18.0884 5.92484 19.0155 7.31238C19.9427 8.69992 20.4375 10.3312 20.4375 12C20.435 14.237 19.5453 16.3817 17.9635 17.9635C16.3817 19.5453 14.237 20.435 12 20.4375ZM14.7478 15.825C14.7134 15.8904 14.6664 15.9484 14.6095 15.9956C14.5527 16.0428 14.487 16.0784 14.4164 16.1002C14.3458 16.1221 14.2716 16.1298 14.198 16.123C14.1244 16.1161 14.0529 16.0948 13.9875 16.0603C13.3766 15.7317 12.6937 15.5597 12 15.5597C11.3063 15.5597 10.6234 15.7317 10.0125 16.0603C9.94713 16.0948 9.87561 16.116 9.80202 16.1229C9.72843 16.1297 9.65421 16.122 9.58361 16.1001C9.51301 16.0783 9.4474 16.0427 9.39054 15.9955C9.33367 15.9483 9.28666 15.8904 9.25219 15.825C9.21772 15.7596 9.19646 15.6881 9.18963 15.6145C9.1828 15.5409 9.19053 15.4667 9.21238 15.3961C9.23423 15.3255 9.26978 15.2599 9.31698 15.203C9.36419 15.1462 9.42213 15.0992 9.4875 15.0647C10.2618 14.6556 11.1243 14.4418 12 14.4418C12.8757 14.4418 13.7382 14.6556 14.5125 15.0647C14.5779 15.0991 14.6359 15.1461 14.6831 15.203C14.7303 15.2599 14.7659 15.3255 14.7877 15.3961C14.8096 15.4667 14.8173 15.5409 14.8105 15.6145C14.8036 15.6881 14.7823 15.7596 14.7478 15.825ZM17.7478 10.575C17.6774 10.7065 17.5577 10.8047 17.4149 10.848C17.2722 10.8912 17.1181 10.876 16.9866 10.8056C15.4533 9.98491 13.741 9.55549 12.0019 9.55549C10.2627 9.55549 8.5505 9.98491 7.01719 10.8056C6.95197 10.8417 6.88024 10.8644 6.80615 10.8725C6.73206 10.8807 6.6571 10.874 6.58563 10.8528C6.51415 10.8317 6.44758 10.7966 6.38979 10.7496C6.332 10.7025 6.28413 10.6444 6.24898 10.5787C6.21382 10.513 6.19207 10.441 6.185 10.3668C6.17793 10.2926 6.18567 10.2177 6.20778 10.1465C6.22988 10.0754 6.26591 10.0093 6.31377 9.95217C6.36163 9.89504 6.42037 9.84799 6.48657 9.81375C8.18306 8.90556 10.0776 8.43036 12.0019 8.43036C13.9262 8.43036 15.8207 8.90556 17.5172 9.81375C17.5824 9.84876 17.6401 9.89629 17.6869 9.95361C17.7337 10.0109 17.7687 10.0769 17.7899 10.1478C17.8112 10.2187 17.8182 10.2931 17.8107 10.3667C17.8031 10.4404 17.7811 10.5118 17.7459 10.5769L17.7478 10.575ZM16.2478 13.2C16.2 13.2906 16.1284 13.3664 16.0407 13.4193C15.9529 13.4721 15.8524 13.5001 15.75 13.5C15.6579 13.4999 15.5671 13.4773 15.4856 13.4344C14.4129 12.8622 13.2158 12.5629 12 12.5629C10.7842 12.5629 9.58711 12.8622 8.51438 13.4344C8.44913 13.4691 8.37768 13.4906 8.30411 13.4977C8.23054 13.5048 8.15629 13.4974 8.0856 13.4758C8.01491 13.4542 7.94917 13.4189 7.89212 13.3719C7.83508 13.3249 7.78785 13.2671 7.75313 13.2019C7.71841 13.1366 7.69688 13.0652 7.68978 12.9916C7.68267 12.918 7.69013 12.8438 7.71172 12.7731C7.73331 12.7024 7.76861 12.6367 7.81561 12.5796C7.86261 12.5226 7.92038 12.4753 7.98563 12.4406C9.22113 11.7818 10.5998 11.4371 12 11.4371C13.4002 11.4371 14.7789 11.7818 16.0144 12.4406C16.0797 12.4753 16.1375 12.5225 16.1845 12.5796C16.2315 12.6366 16.2668 12.7024 16.2884 12.7731C16.31 12.8438 16.3175 12.918 16.3103 12.9916C16.3032 13.0652 16.2816 13.1366 16.2469 13.2019L16.2478 13.2Z" fill="black"/>
</g>
</svg>
